# xmcd CD database file
#
# Track frame offsets:
#	150
#	35626
#	75670
#	116345
#	120427
#	154002
#	188970
#	200494
#
# Disc length: 2911 seconds
#
# Revision: 0
# Processed by: cddbd v1.5.1PL2 Copyright (c) Steve Scherf et al.
# Submitted via: CDex 1.51
#
DISCID=600b5d08
DTITLE=Hugo García - Enjazzando
DYEAR=2000
DGENRE=Jazz
TTITLE0=A Night in Tunisia
TTITLE1=El Gaucho
TTITLE2=Despidiéndome de ti
TTITLE3=Tocado
TTITLE4=Birk's Works
TTITLE5=Slidin'
TTITLE6=Un Valcesito para Max
TTITLE7=Piedra y Camino
EXTD=YEAR: 2000
EXTT0=
EXTT1=
EXTT2=
EXTT3=
EXTT4=
EXTT5=
EXTT6=
EXTT7=
PLAYORDER=
